<svg xmlns="http://www.w3.org/2000/svg" xmlns:xlink="http://www.w3.org/1999/xlink" contentStyleType="text/css" data-diagram-type="ACTIVITY" height="513px" preserveAspectRatio="none" style="width:568px;height:513px;background:#FFFFFF;" version="1.1" viewBox="0 0 568 513" width="568px" zoomAndPan="magnify"><title>&lt;size:20&gt;Flujo de datos de costos a labores operativas
&lt;size:12&gt;Integraci&#243;n de costos financieros con labores operativas
&lt;size:10&gt;Python|SQL|ORACLE</title><defs/><g><g class="title" data-source-line="1"><text fill="#000000" font-family="sans-serif" font-size="20" font-weight="bold" lengthAdjust="spacing" textLength="512.6465" x="26.2595" y="38.5645">Flujo de datos de costos a labores operativas</text><text fill="#000000" font-family="sans-serif" font-size="12" font-weight="bold" lengthAdjust="spacing" textLength="384.1523" x="90.5066" y="54.4199">Integraci&#243;n de costos financieros con labores operativas</text><text fill="#000000" font-family="sans-serif" font-size="10" font-weight="bold" lengthAdjust="spacing" textLength="113.5986" x="225.7834" y="66.5322">Python|SQL|ORACLE</text></g><rect fill="none" height="20.9531" style="stroke:none;stroke-width:1;" width="530.106" x="15" y="82.6357"/><rect fill="#F0CA92" height="383.4063" style="stroke:#F0CA92;stroke-width:1;" width="340.1348" x="15" y="82.6357"/><rect fill="#555555" height="6" rx="2.5" ry="2.5" style="stroke:#555555;stroke-width:1;" width="330.1348" x="21" y="108.5889"/><ellipse cx="93.0244" cy="191.8779" fill="#222222" rx="10" ry="10" style="stroke:#222222;stroke-width:1;"/><rect fill="#F1F1F1" height="47.9375" rx="12.5" ry="12.5" style="stroke:#181818;stroke-width:0.5;" width="120.0488" x="33" y="236.8779"/><text fill="#000000" font-family="sans-serif" font-size="12" lengthAdjust="spacing" textLength="86.1563" x="43" y="258.0166">Obtener datos</text><text fill="#000000" font-family="sans-serif" font-size="12" lengthAdjust="spacing" textLength="100.0488" x="43" y="271.9854">de Vista Labores</text><ellipse cx="247.2314" cy="144.5889" fill="#222222" rx="10" ry="10" style="stroke:#222222;stroke-width:1;"/><rect fill="#F1F1F1" height="47.9375" rx="12.5" ry="12.5" style="stroke:#181818;stroke-width:0.5;" width="112.7539" x="190.8545" y="284.167"/><text fill="#000000" font-family="sans-serif" font-size="12" lengthAdjust="spacing" textLength="86.1563" x="200.8545" y="305.3057">Obtener datos</text><text fill="#000000" font-family="sans-serif" font-size="12" lengthAdjust="spacing" textLength="92.7539" x="200.8545" y="319.2744">de Vista Costos</text><rect fill="#555555" height="6" rx="2.5" ry="2.5" style="stroke:#555555;stroke-width:1;" width="330.1348" x="21" y="352.1045"/><rect fill="#F1F1F1" height="47.9375" rx="12.5" ry="12.5" style="stroke:#181818;stroke-width:0.5;" width="166.1211" x="110.043" y="378.1045"/><text fill="#000000" font-family="sans-serif" font-size="12" lengthAdjust="spacing" textLength="102.5918" x="120.043" y="399.2432">Insertar datos en</text><text fill="#000000" font-family="sans-serif" font-size="12" lengthAdjust="spacing" textLength="146.1211" x="120.043" y="413.2119">tabla COSTOS_LABORES</text><ellipse cx="193.1035" cy="456.042" fill="none" rx="10" ry="10" style="stroke:#222222;stroke-width:1.5;"/><line style="stroke:#222222;stroke-width:2.5;" x1="186.9163" x2="199.2907" y1="449.8548" y2="462.2292"/><line style="stroke:#222222;stroke-width:2.5;" x1="199.2907" x2="186.9163" y1="449.8548" y2="462.2292"/><line style="stroke:#000000;stroke-width:1.5;" x1="15" x2="15" y1="82.6357" y2="466.042"/><rect fill="#FFC7C7" height="383.4063" style="stroke:#FFC7C7;stroke-width:1;" width="188.1104" x="355.1348" y="82.6357"/><rect fill="#F1F1F1" height="33.9688" rx="12.5" ry="12.5" style="stroke:#181818;stroke-width:0.5;" width="132.3652" x="384.0073" y="202.3936"/><text fill="#000000" font-family="sans-serif" font-size="12" lengthAdjust="spacing" textLength="112.3652" x="394.0073" y="223.5322">Tablas Disponibles</text><line style="stroke:#000000;stroke-width:1.5;" x1="355.1348" x2="355.1348" y1="82.6357" y2="466.042"/><line style="stroke:#000000;stroke-width:1.5;" x1="543.2451" x2="543.2451" y1="82.6357" y2="466.042"/><line style="stroke:#181818;stroke-width:1;" x1="93.0244" x2="93.0244" y1="201.8779" y2="236.8779"/><polygon fill="#181818" points="89.0244,226.8779,93.0244,236.8779,97.0244,226.8779,93.0244,230.8779" style="stroke:#181818;stroke-width:1;"/><line style="stroke:#181818;stroke-width:1;" x1="93.0244" x2="93.0244" y1="114.5889" y2="181.8779"/><polygon fill="#181818" points="89.0244,171.8779,93.0244,181.8779,97.0244,171.8779,93.0244,175.8779" style="stroke:#181818;stroke-width:1;"/><line style="stroke:#181818;stroke-width:1;" x1="247.2314" x2="247.2314" y1="114.5889" y2="134.5889"/><polygon fill="#181818" points="243.2314,124.5889,247.2314,134.5889,251.2314,124.5889,247.2314,128.5889" style="stroke:#181818;stroke-width:1;"/><line style="stroke:#181818;stroke-width:1;" x1="93.0244" x2="93.0244" y1="284.8154" y2="352.1045"/><polygon fill="#181818" points="89.0244,342.1045,93.0244,352.1045,97.0244,342.1045,93.0244,346.1045" style="stroke:#181818;stroke-width:1;"/><line style="stroke:#181818;stroke-width:1;" x1="247.2314" x2="247.2314" y1="332.1045" y2="352.1045"/><polygon fill="#181818" points="243.2314,342.1045,247.2314,352.1045,251.2314,342.1045,247.2314,346.1045" style="stroke:#181818;stroke-width:1;"/><line style="stroke:#181818;stroke-width:1;" x1="193.1035" x2="193.1035" y1="358.1045" y2="378.1045"/><polygon fill="#181818" points="189.1035,368.1045,193.1035,378.1045,197.1035,368.1045,193.1035,372.1045" style="stroke:#181818;stroke-width:1;"/><line style="stroke:#181818;stroke-width:1;" x1="193.1035" x2="193.1035" y1="426.042" y2="446.042"/><polygon fill="#181818" points="189.1035,436.042,193.1035,446.042,197.1035,436.042,193.1035,440.042" style="stroke:#181818;stroke-width:1;"/><line style="stroke:#181818;stroke-width:1;" x1="247.2314" x2="247.2314" y1="154.5889" y2="178.4912"/><line style="stroke:#181818;stroke-width:1;" x1="247.2314" x2="450.1899" y1="178.4912" y2="178.4912"/><line style="stroke:#181818;stroke-width:1;" x1="450.1899" x2="450.1899" y1="178.4912" y2="202.3936"/><polygon fill="#181818" points="446.1899,192.3936,450.1899,202.3936,454.1899,192.3936,450.1899,196.3936" style="stroke:#181818;stroke-width:1;"/><text fill="#000000" font-family="sans-serif" font-size="11" lengthAdjust="spacing" textLength="87.9033" x="251.2314" y="170.3481">Petici&#243;n DBLINK</text><line style="stroke:#181818;stroke-width:1;" x1="450.1899" x2="450.1899" y1="236.3623" y2="260.2646"/><line style="stroke:#181818;stroke-width:1;" x1="450.1899" x2="247.2314" y1="260.2646" y2="260.2646"/><line style="stroke:#181818;stroke-width:1;" x1="247.2314" x2="247.2314" y1="260.2646" y2="284.167"/><polygon fill="#181818" points="243.2314,274.167,247.2314,284.167,251.2314,274.167,247.2314,278.167" style="stroke:#181818;stroke-width:1;"/><text fill="#000000" font-family="sans-serif" font-size="11" lengthAdjust="spacing" textLength="101.9756" x="454.1899" y="252.1216">Respuesta DBLINK</text><text fill="#000000" font-family="sans-serif" font-size="18" lengthAdjust="spacing" textLength="129.0234" x="120.5557" y="99.3438">DB Oracle 19c</text><text fill="#000000" font-family="sans-serif" font-size="18" lengthAdjust="spacing" textLength="178.1104" x="360.1348" y="99.3438">DB SQLServer 2022</text><g class="footer" data-source-line="3"><text fill="#888888" font-family="sans-serif" font-size="10" lengthAdjust="spacing" textLength="404.6484" x="80.2585" y="475.3242">Se elimin&#243; un proceso de contabilidad manual de fin de mes, permitiendo que la</text><text fill="#888888" font-family="sans-serif" font-size="10" lengthAdjust="spacing" textLength="445.4443" x="61.45" y="486.9648">importaci&#243;n de datos en el ERP ahora se realice de forma autom&#225;tica. Esto se tradujo en</text><text fill="#888888" font-family="sans-serif" font-size="10" lengthAdjust="spacing" textLength="417.8613" x="75.2415" y="498.6055">una gesti&#243;n de costos m&#225;s r&#225;pida y precisa, sin necesidad de intervenci&#243;n humana</text></g><!--SRC=[VLB1Qjj04BthAmPww2KjZYuXTZ7OiWscedAjq9EXZAI9FQaqg-wk0YdwcNn3Fi4_rba9cb1mJZlipdlptflrx6k2Bux_q3IUp3Trzs2W8gZG6nUAqhXG8THO64iEJ4iMFJ-YEyY8kuxdM_5qj5Zo-KNUeEvPK4ecgtLfv3sEoNptv4z6-lnxscVxHPAkeu-mCSQJ7R2bQKWyMZRWJ659oHmqz60ikkX-xCi9gEQ6vVm2dK1hJKdEZ88KMt3D5LRGe7HOXsiL68w6t1MefeOzarG6VdU1_o30JMkiVpKsvaAYSs2ztm6UT3uu0ajOSqa3gR4D0dRUDETdpoL-XhN64RgynIeaJABSdI0SoVd_GbEG0tj-RbKhFAa9AjdX5JZLAgI61W_QpngwVIGPnPqwjOMHXhOYjSKMMhGwdOsGY_eFcqcok8txrH8oNPGk_Vgsx2DDplwA02wz0pZDtEivpGfFeY4F4Hn41VnWVOHqNEfie08y8iiRc19lafla9X3hQlEWs48yYUD0_caEEmeYWuFLCjr- -peBi-wm2EjTiMkDS547Ue0Hi2VNTXGclmBUTN1HUJ84FejqvJ3aS36cwLOSwJ-m_px08VodMZco_2xBVwQBPRPVvmFNNm00]--></g></svg>